<?xml version="1.0" standalone="no"?>
<!DOCTYPE svg PUBLIC "-//W3C//DTD SVG 20010904//EN"
 "http://www.w3.org/TR/2001/REC-SVG-20010904/DTD/svg10.dtd">
<svg version="1.0" xmlns="http://www.w3.org/2000/svg"
 width="899.000000pt" height="899.000000pt" viewBox="0 0 899.000000 899.000000"
 preserveAspectRatio="xMidYMid meet">
<metadata>
Created by potrace 1.14, written by Peter Selinger 2001-2017
</metadata>
<g transform="translate(0.000000,899.000000) scale(0.100000,-0.100000)"
fill="#000000" stroke="none">
<path d="M4229 8968 c-12 -258 79 -551 245 -783 35 -49 44 -79 28 -89 -5 -3
-51 -8 -103 -11 -587 -38 -1122 -169 -1554 -380 -651 -318 -1047 -791 -1156
-1380 -58 -314 -2 -739 137 -1033 33 -69 57 -88 49 -39 -24 154 -22 375 5 506
43 213 123 369 290 564 77 90 77 90 139 135 79 57 76 35 -18 -133 -65 -117
-139 -297 -167 -405 -62 -244 -53 -511 25 -755 24 -73 20 -81 -70 -148 -169
-127 -375 -331 -494 -490 -271 -360 -348 -756 -213 -1096 59 -149 142 -265
293 -409 171 -164 501 -361 740 -441 126 -42 127 -33 7 56 -213 156 -334 301
-392 469 -29 84 -29 248 0 336 85 254 325 491 724 715 388 218 983 403 1411
439 44 3 83 8 88 11 10 6 444 6 454 0 4 -3 46 -8 93 -12 188 -15 464 -72 690
-142 713 -219 1184 -585 1322 -1023 21 -67 23 -94 23 -255 0 -177 -1 -182 -32
-272 -41 -118 -92 -222 -114 -234 -24 -12 -33 7 -48 96 -87 517 -485 902
-1092 1055 -343 87 -788 111 -1117 61 -313 -48 -600 -154 -807 -299 -107 -75
-276 -240 -335 -327 -204 -302 -224 -603 -59 -882 43 -71 186 -218 264 -270
321 -215 772 -287 1265 -203 241 42 582 140 746 215 39 18 74 37 78 44 9 14
-59 15 -169 2 -44 -6 -109 -13 -145 -16 -78 -7 -466 -7 -530 0 -315 36 -503
106 -627 232 -118 119 -112 273 16 401 204 204 735 254 1141 107 166 -60 292
-139 407 -254 109 -110 179 -233 203 -362 14 -75 12 -233 -5 -312 -42 -201
-196 -470 -395 -692 -360 -402 -856 -776 -1567 -1184 -87 -50 -128 -81 -106
-81 34 0 261 95 489 205 553 266 963 544 1299 880 286 286 469 564 599 912 27
71 55 111 57 82 10 -103 -50 -347 -135 -547 -38 -90 -129 -253 -197 -352 -87
-127 -173 -230 -314 -378 -70 -73 -125 -135 -122 -138 11 -11 112 55 232 151
306 244 557 546 719 865 114 225 166 378 206 612 10 59 22 114 27 122 4 8 42
45 83 82 202 184 334 347 420 519 56 113 82 200 100 333 22 162 -17 366 -105
542 -95 192 -187 312 -415 539 -115 115 -150 156 -137 159 43 9 323 -164 453
-280 269 -240 404 -518 404 -835 0 -119 -13 -210 -51 -346 -17 -59 -29 -113
-26 -120 13 -40 176 274 232 447 54 169 80 397 60 531 -50 336 -178 572 -451
835 -282 270 -742 524 -1257 694 -339 111 -823 214 -1137 241 -41 3 -93 9
-115 12 -72 10 -457 6 -580 -6 -592 -57 -1068 -190 -1547 -433 -98 -49 -185
-88 -195 -86 -16 3 -18 14 -17 93 5 319 280 651 704 848 446 207 982 320 1705
358 326 17 737 10 980 -16 22 -2 72 -7 110 -10 563 -47 1116 -231 1397 -466
80 -66 121 -114 175 -201 19 -31 41 -59 49 -62 19 -7 45 36 83 134 118 303 37
598 -240 879 -103 104 -201 185 -331 272 -48 33 -94 69 -102 82 -8 12 -23 60
-35 107 -67 285 -237 532 -478 693 -32 21 -102 61 -157 88 -202 103 -376 154
-715 209 -262 44 -346 62 -481 108 -334 113 -588 303 -732 546 -52 90 -77 109
-79 64z m1783 -1364 c133 -41 251 -109 332 -189 106 -104 156 -204 111 -221
-24 -10 -167 15 -244 41 -157 53 -268 161 -326 317 -14 39 -15 51 -5 63 17 21
36 19 132 -11z"/>
</g>
</svg>
